<svg width="33" height="32" viewBox="0 0 33 32" fill="none" xmlns="http://www.w3.org/2000/svg">
<path fill-rule="evenodd" clip-rule="evenodd" d="M0.666748 16C0.666748 7.16344 7.83019 0 16.6667 0C25.5033 0 32.6667 7.16344 32.6667 16C32.6667 24.8366 25.5033 32 16.6667 32C7.83019 32 0.666748 24.8366 0.666748 16Z" fill="#DC4E41"/>
<path fill-rule="evenodd" clip-rule="evenodd" d="M13.7577 17.2807V15.5435H18.5649C18.6086 15.7969 18.6449 16.0502 18.6449 16.3832C18.6449 19.2784 16.6958 21.334 13.7577 21.334C10.9431 21.334 8.66675 19.0685 8.66675 16.2674C8.66675 13.4662 10.9431 11.2007 13.7577 11.2007C15.1322 11.2007 16.2813 11.7001 17.1686 12.5253L15.7867 13.8498C15.4086 13.4879 14.7467 13.0681 13.7577 13.0681C12.0195 13.0681 10.6013 14.5013 10.6013 16.2674C10.6013 18.0334 12.0195 19.4666 13.7577 19.4666C15.7722 19.4666 16.5286 18.0262 16.6449 17.2807H13.7577ZM23.2123 15.5433H24.6668V16.9909H23.2123V18.4386H21.7577V16.9909H20.3032V15.5433H21.7577V14.0957H23.2123V15.5433Z" fill="white"/>
</svg>
